<?xml version="1.0" encoding="iso-8859-1"?>
<!-- Generator: Adobe Illustrator 19.0.0, SVG Export Plug-In . SVG Version: 6.00 Build 0)  -->
<svg version="1.1" id="Capa_1" xmlns="http://www.w3.org/2000/svg" xmlns:xlink="http://www.w3.org/1999/xlink" x="0px" y="0px"
	 viewBox="0 0 512.005 512.005" style="enable-background:new 0 0 512.005 512.005;" xml:space="preserve">
<path style="fill:#FFA511;" d="M291.29,379.606h-70.616c-19.499,0-35.308,15.809-35.308,35.308v61.789h26.481v-35.308
	c0-4.872,3.954-8.827,8.827-8.827c4.872,0,8.827,3.954,8.827,8.827v35.308h52.962v-35.308c0-4.872,3.954-8.827,8.827-8.827
	s8.827,3.954,8.827,8.827v35.308h26.481v-61.789C326.598,395.416,310.789,379.606,291.29,379.606z"/>
<path style="fill:#4DB5FF;" d="M105.924,379.606H35.308C15.809,379.606,0,395.416,0,414.914v61.789h26.481v-35.308
	c0-4.872,3.954-8.827,8.827-8.827s8.827,3.954,8.827,8.827v35.308h52.962v-35.308c0-4.872,3.954-8.827,8.827-8.827
	s8.827,3.954,8.827,8.827v35.308h26.481v-61.789C141.232,395.416,125.423,379.606,105.924,379.606z"/>
<path style="fill:#EF2648;" d="M476.657,379.606h-70.616c-19.499,0-35.308,15.809-35.308,35.308v61.789h26.481v-35.308
	c0-4.872,3.954-8.827,8.827-8.827s8.827,3.954,8.827,8.827v35.308h52.962v-35.308c0-4.872,3.954-8.827,8.827-8.827
	s8.827,3.954,8.827,8.827v35.308h26.481v-61.789C511.965,395.416,496.156,379.606,476.657,379.606z"/>
<path style="fill:#FFA511;" d="M476.657,326.645v-35.308h-70.616v35.308l-35.308-17.654l19.516-39.033
	c9.674-19.358,29.456-31.583,51.099-31.583l0,0c21.644,0,41.425,12.225,51.099,31.583l19.516,39.033L476.657,326.645z"/>
<g>
	<path style="fill:#FFD4B0;" d="M476.657,291.337v35.308c0,19.499-15.809,35.308-35.308,35.308l0,0
		c-19.499,0-35.308-15.809-35.308-35.308v-35.308H476.657z"/>
	<path style="fill:#FFD4B0;" d="M220.674,291.337v35.308c0,19.499,15.809,35.308,35.308,35.308l0,0
		c19.499,0,35.308-15.809,35.308-35.308v-35.308H220.674z"/>
</g>
<path style="fill:#235087;" d="M220.674,291.337l-17.654-35.308h52.962c19.499,0,35.308,15.809,35.308,35.308H220.674z"/>
<path style="fill:#FFD4B0;" d="M105.924,291.337v35.308c0,19.499-15.809,35.308-35.308,35.308l0,0
	c-19.499,0-35.308-15.809-35.308-35.308v-35.308H105.924z"/>
<path style="fill:#FFA511;" d="M105.924,291.337H35.308v-17.654c0-9.754,7.9-17.654,17.654-17.654H88.27
	c9.754,0,17.654,7.9,17.654,17.654V291.337z"/>
<path style="fill:#B7E5FF;" d="M511.965,105.97c0.026-38.998-31.565-70.642-70.563-70.669
	c-39.006-0.026-70.642,31.565-70.669,70.572c-0.026,31.706,21.096,59.547,51.638,68.065l18.978,37.956l18.978-37.956
	C490.833,165.429,511.938,137.641,511.965,105.97z"/>
<path style="fill:#99C8E0;" d="M463.822,39.07c32.095,22.112,40.18,66.061,18.069,98.156
	c-17.848,25.898-50.684,36.861-80.511,26.878c6.408,4.413,13.496,7.732,20.991,9.833l18.978,37.956l18.978-37.956
	c37.541-10.433,59.512-49.316,49.087-86.857c-6.276-22.571-23.347-40.56-45.556-48.001L463.822,39.07z"/>
<path style="fill:#B7E5FF;" d="M326.598,105.97c0.026-38.998-31.565-70.642-70.563-70.669
	c-39.006-0.026-70.642,31.565-70.669,70.572c-0.026,31.706,21.096,59.547,51.638,68.065l18.978,37.956l18.978-37.956
	C305.466,165.429,326.572,137.641,326.598,105.97z"/>
<path style="fill:#99C8E0;" d="M278.456,39.07c32.095,22.112,40.18,66.061,18.069,98.156
	c-17.848,25.898-50.684,36.861-80.511,26.878c6.408,4.413,13.496,7.732,20.991,9.833l18.978,37.956l18.978-37.956
	c37.541-10.433,59.511-49.316,49.087-86.857c-6.276-22.571-23.347-40.56-45.556-48.001L278.456,39.07z"/>
<path style="fill:#B7E5FF;" d="M141.232,105.97c0.026-38.998-31.565-70.642-70.563-70.669C31.662,35.275,0.027,66.867,0,105.873
	c-0.026,31.706,21.096,59.547,51.638,68.065l18.978,37.956l18.978-37.956C120.1,165.429,141.205,137.641,141.232,105.97z"/>
<g>
	<path style="fill:#EF2648;" d="M441.349,153.759l-37.135-37.135c-10.751-10.76-10.751-28.202,0-38.962
		c10.195-9.807,26.084-10.539,37.135-1.704c11.043-8.845,26.931-8.13,37.135,1.668c10.751,10.76,10.751,28.202,0,38.962
		L441.349,153.759z M423.695,87.248c-5.464,0-9.895,4.422-9.904,9.886c0,2.63,1.042,5.146,2.904,7.009l24.654,24.654l24.654-24.654
		c3.866-3.866,3.866-10.133,0-14s-10.133-3.866-14,0l0,0l-10.654,10.654l-10.654-10.654
		C428.841,88.281,426.317,87.239,423.695,87.248z"/>
	<path style="fill:#EF2648;" d="M255.982,150.105c-24.371,0-44.135-19.764-44.135-44.135s19.764-44.135,44.135-44.135
		s44.135,19.764,44.135,44.135C300.091,130.333,280.345,150.079,255.982,150.105z M255.982,79.489
		c-14.626,0-26.481,11.855-26.481,26.481s11.855,26.481,26.481,26.481s26.481-11.855,26.481-26.481S270.609,79.489,255.982,79.489z"
		/>
	
		<rect x="218.559" y="97.158" transform="matrix(-0.7071 0.7071 -0.7071 -0.7071 511.9746 -0.0961)" style="fill:#EF2648;" width="74.896" height="17.654"/>
	<rect x="35.308" y="97.187" style="fill:#EF2648;" width="70.616" height="17.654"/>
</g>
<path style="fill:#99C8E0;" d="M93.089,39.07c32.095,22.112,40.18,66.061,18.069,98.156c-17.848,25.898-50.685,36.861-80.511,26.878
	c6.408,4.413,13.496,7.732,20.991,9.833l18.978,37.956l18.978-37.956c37.541-10.433,59.511-49.316,49.087-86.857
	c-6.276-22.571-23.347-40.56-45.556-48.001L93.089,39.07z"/>
<path style="fill:#EDC4A2;" d="M97.097,317.818c0.026,19.472-15.739,35.281-35.202,35.308c-7.238,0.009-14.3-2.207-20.24-6.355
	c11.157,15.994,33.163,19.922,49.157,8.765c9.445-6.585,15.085-17.371,15.112-28.891v-35.308h-8.827V317.818z"/>
<path style="fill:#F08015;" d="M95.508,257.618c1.042,2.269,1.58,4.74,1.589,7.238v26.481h8.827v-17.654
	C105.906,266.745,101.837,260.46,95.508,257.618z"/>
<path style="fill:#EDC4A2;" d="M282.463,291.337v26.481c0.026,19.472-15.739,35.281-35.202,35.308
	c-7.238,0.009-14.3-2.207-20.24-6.355c11.157,15.994,33.163,19.922,49.157,8.765c9.445-6.585,15.085-17.371,15.112-28.891v-35.308
	H282.463z"/>
<path style="fill:#163768;" d="M282.463,291.337h8.827c0-11.555-5.676-22.376-15.174-28.961c4.131,5.905,6.347,12.932,6.347,20.134
	V291.337z"/>
<path style="fill:#EDC4A2;" d="M467.83,291.337v26.481c0.026,19.472-15.739,35.281-35.202,35.308
	c-7.238,0.009-14.3-2.207-20.24-6.355c11.157,15.994,33.163,19.922,49.157,8.765c9.445-6.585,15.085-17.371,15.112-28.891v-35.308
	H467.83z"/>
<g>
	<path style="fill:#F08015;" d="M372.419,305.619l-1.686,3.372l35.308,17.654v-10.319
		C394.345,314.525,383.003,310.915,372.419,305.619z"/>
	<path style="fill:#F08015;" d="M476.657,304.807v21.838l35.308-17.654l-10.751-21.494
		C493.825,294.32,485.563,300.137,476.657,304.807z"/>
	<path style="fill:#F08015;" d="M185.367,476.703h26.481v-9.321c-8.827,0.291-17.654,0.494-26.481,0.494V476.703z"/>
	<path style="fill:#F08015;" d="M229.501,476.703h52.962v-14.856c-17.477,2.18-35.131,3.76-52.962,4.758V476.703z"/>
	<path style="fill:#F08015;" d="M300.117,476.703h26.481v-21.67c-8.774,1.606-17.601,3.081-26.481,4.413V476.703z"/>
</g>
<g>
	<path style="fill:#3596D8;" d="M114.751,476.703h26.481v-10.098c-8.871-0.503-17.698-1.156-26.481-1.96V476.703z"/>
	<path style="fill:#3596D8;" d="M0,476.703h26.481v-25.122c-8.889-1.845-17.707-3.875-26.481-6.02V476.703z"/>
	<path style="fill:#3596D8;" d="M44.135,476.703h52.962v-13.85c-17.839-2.021-35.493-4.625-52.962-7.821V476.703z"/>
</g>
<g>
	<path style="fill:#B20D24;" d="M370.733,476.703h26.481v-35.308c0.026-1.006,0.229-1.995,0.591-2.931
		c-8.951,2.542-17.989,4.872-27.072,7.062V476.703z"/>
	<path style="fill:#B20D24;" d="M414.868,441.395v35.308h52.962v-35.308c0-4.872,3.954-8.827,8.827-8.827s8.827,3.954,8.827,8.827
		v35.308h26.481v-61.789c-0.035-5.888-1.554-11.669-4.414-16.815c-31.23,14.247-63.369,26.401-96.214,36.367
		C413.544,436.09,414.85,438.659,414.868,441.395z"/>
</g>
<g>
</g>
<g>
</g>
<g>
</g>
<g>
</g>
<g>
</g>
<g>
</g>
<g>
</g>
<g>
</g>
<g>
</g>
<g>
</g>
<g>
</g>
<g>
</g>
<g>
</g>
<g>
</g>
<g>
</g>
</svg>
