<?xml version="1.0" encoding="iso-8859-1"?>
<!-- Generator: Adobe Illustrator 19.0.0, SVG Export Plug-In . SVG Version: 6.00 Build 0)  -->
<svg version="1.1" id="Capa_1" xmlns="http://www.w3.org/2000/svg" xmlns:xlink="http://www.w3.org/1999/xlink" x="0px" y="0px"
	 viewBox="0 0 512 512" style="enable-background:new 0 0 512 512;" xml:space="preserve">
<polygon style="fill:#EF2648;" points="406.069,136.828 353.103,189.793 317.793,189.793 317.793,242.759 379.586,242.759 
	423.724,198.621 423.724,304.552 512,304.552 512,136.828 "/>
<g>
	<path style="fill:#FFD4B0;" d="M291.31,189.793c-14.627,0-26.483,11.855-26.483,26.483s11.855,26.483,26.483,26.483h26.483v-52.966
		H291.31z"/>
	<path style="fill:#FFD4B0;" d="M220.69,189.793h-26.483v52.966h26.483c14.627,0,26.483-11.855,26.483-26.483
		S235.317,189.793,220.69,189.793z"/>
</g>
<polygon style="fill:#4DB5FF;" points="158.897,189.793 105.931,136.828 0,136.828 0,304.552 88.276,304.552 88.276,198.621 
	132.414,242.759 194.207,242.759 194.207,189.793 "/>
<path style="fill:#FFD4B0;" d="M11.652,72.474c8.28,22.872,33.536,34.701,56.399,26.421c17.47-6.329,29.096-22.934,29.052-41.516
	V39.724h-3.028C63.435,39.759,33.96,51.474,11.652,72.474z"/>
<path style="fill:#FFA511;" d="M52.966,13.241c-24.373,0-44.138,19.765-44.138,44.138c0.044,5.155,0.998,10.266,2.825,15.095
	c22.307-21.001,51.783-32.715,82.423-32.75h3.028V13.241H52.966z"/>
<path style="fill:#FFD4B0;" d="M414.897,39.724v17.655c-0.053,24.32,19.615,44.085,43.935,44.147
	c18.582,0.044,35.187-11.582,41.516-29.052c-22.307-21.001-51.783-32.715-82.423-32.75
	C417.924,39.724,414.897,39.724,414.897,39.724z"/>
<path style="fill:#FFA511;" d="M459.034,13.241h-44.138v26.483h3.028c30.641,0.035,60.116,11.75,82.423,32.75
	c1.827-4.829,2.781-9.94,2.825-15.095C503.172,33.006,483.407,13.241,459.034,13.241z"/>
<g>
	<path style="fill:#235087;" d="M0,322.207c0,19.5,15.81,35.31,35.31,35.31h52.966c9.754,0,17.655,7.901,17.655,17.655v97.103
		c0,9.754,7.901,17.655,17.655,17.655h17.655c9.754,0,17.655-7.901,17.655-17.655V357.517c0-29.255-23.711-52.966-52.966-52.966H0
		V322.207z"/>
	<path style="fill:#235087;" d="M256,498.759c-4.873,0-8.828-3.955-8.828-8.828V278.069c0-4.873,3.955-8.828,8.828-8.828
		s8.828,3.955,8.828,8.828v211.862C264.828,494.804,260.873,498.759,256,498.759z"/>
</g>
<path style="fill:#8994A3;" d="M361.931,286.897H150.069c-4.873,0-8.828-3.955-8.828-8.828s3.955-8.828,8.828-8.828h211.862
	c4.873,0,8.828,3.955,8.828,8.828S366.804,286.897,361.931,286.897z"/>
<path style="fill:#235087;" d="M291.31,498.759H220.69c-4.873,0-8.828-3.955-8.828-8.828s3.955-8.828,8.828-8.828h70.621
	c4.873,0,8.828,3.955,8.828,8.828S296.183,498.759,291.31,498.759z"/>
<g>
	<path style="fill:#163768;" d="M406.069,304.552c-29.255,0-52.966,23.711-52.966,52.966v114.759
		c0,9.754,7.901,17.655,17.655,17.655h17.655c9.754,0,17.655-7.901,17.655-17.655v-97.103c0-9.754,7.901-17.655,17.655-17.655
		h52.966c19.5,0,35.31-15.81,35.31-35.31v-17.655H406.069z"/>
	<path style="fill:#163768;" d="M20.303,354.03c4.679,2.26,9.807,3.452,15.007,3.487h52.966c9.754,0,17.655,7.901,17.655,17.655
		v97.103c0,9.754,7.901,17.655,17.655,17.655h17.655c9.754,0,17.655-7.901,17.655-17.655V357.517c0-8.316-1.977-16.508-5.756-23.914
		C109.391,343.473,64.998,350.296,20.303,354.03z"/>
</g>
<path style="fill:#B20D24;" d="M423.724,227.575v76.977H512v-134.7C483.646,190.676,454.171,209.946,423.724,227.575z"/>
<path style="fill:#EDC4A2;" d="M450.207,92.69c-9.534-0.026-18.794-3.16-26.377-8.934c14.407,19.465,41.86,23.57,61.325,9.163
	c6.974-5.164,12.262-12.279,15.192-20.445c-2.94-2.745-5.994-5.332-9.163-7.751C484.573,81.576,468.312,92.672,450.207,92.69z"/>
<path style="fill:#F08015;" d="M485.411,22.175c9.322,12.156,11.52,28.345,5.773,42.549c3.169,2.428,6.223,5.005,9.163,7.751
	c6.93-18.22,0.812-38.824-14.936-50.317L485.411,22.175z"/>
<path style="fill:#EDC4A2;" d="M88.276,39.998v8.554c0,24.373-19.765,44.138-44.138,44.138c-9.507,0-18.759-3.125-26.324-8.889
	c14.521,19.482,42.09,23.508,61.581,8.986c11.176-8.333,17.743-21.469,17.708-35.407V39.724h-3.028
	C92.134,39.724,90.209,39.91,88.276,39.998z"/>
<path style="fill:#F08015;" d="M88.276,13.241v26.756c1.933-0.088,3.858-0.274,5.8-0.274h3.028V13.241H88.276z"/>
<path style="fill:#EDC4A2;" d="M194.207,225.103v17.655h26.483c11.193-0.018,21.151-7.097,24.858-17.655H194.207z"/>
<polygon style="fill:#3596D8;" points="114.759,225.103 132.414,242.759 194.207,242.759 194.207,225.103 "/>
<polygon style="fill:#B20D24;" points="317.793,242.759 379.586,242.759 397.241,225.103 317.793,225.103 "/>
<path style="fill:#EDC4A2;" d="M266.452,225.103c3.708,10.558,13.665,17.637,24.858,17.655h26.483v-17.655H266.452z"/>
<g>
</g>
<g>
</g>
<g>
</g>
<g>
</g>
<g>
</g>
<g>
</g>
<g>
</g>
<g>
</g>
<g>
</g>
<g>
</g>
<g>
</g>
<g>
</g>
<g>
</g>
<g>
</g>
<g>
</g>
</svg>
