<?xml version="1.0" encoding="iso-8859-1"?>
<!-- Generator: Adobe Illustrator 19.0.0, SVG Export Plug-In . SVG Version: 6.00 Build 0)  -->
<svg version="1.1" id="Capa_1" xmlns="http://www.w3.org/2000/svg" xmlns:xlink="http://www.w3.org/1999/xlink" x="0px" y="0px"
	 viewBox="0 0 512 512" style="enable-background:new 0 0 512 512;" xml:space="preserve">
<path style="fill:#FFA511;" d="M60.746,4.339C27.258,4.278,0.061,31.388,0,64.877c-0.009,7.593,1.397,15.117,4.165,22.19
	c31.31-30.755,73.442-47.989,117.326-48.015V4.339H60.746z"/>
<path style="fill:#FFD4B0;" d="M60.746,125.831c33.549,0,60.746-27.197,60.746-60.746V39.051
	C77.607,39.077,35.476,56.311,4.165,87.066C13.225,110.419,35.701,125.813,60.746,125.831z"/>
<path style="fill:#235087;" d="M0,507.661h52.068l0,0h69.424c9.589,0,17.356-7.767,17.356-17.356
	c0-9.589-7.767-17.356-17.356-17.356h-17.356V308.068H0V507.661z"/>
<path style="fill:#EF2648;" d="M251.661,117.153l26.902,80.705c4.07,12.219,17.286,18.831,29.505,14.753
	c0.434-0.148,0.859-0.304,1.284-0.469l0,0c11.464-4.591,17.373-17.321,13.468-29.036l-27.769-83.308L251.661,117.153z"/>
<path style="fill:#B20D24;" d="M282.034,143.187c11.576-0.009,22.762,4.217,31.44,11.88l-18.423-55.27l-43.39,17.356l10.188,30.555
	C268.167,144.731,275.057,143.187,282.034,143.187z"/>
<path style="fill:#EF2648;" d="M416.542,47.729L416.542,47.729c19.17,0,34.712,15.542,34.712,34.712l0,0
	c0,19.17-15.542,34.712-34.712,34.712l0,0V47.729z"/>
<rect x="104.136" y="186.576" style="fill:#4DB5FF;" width="43.39" height="52.068"/>
<path style="fill:#EDC4A2;" d="M251.661,186.576H147.525v52.068h104.136c14.379,0,26.034-11.655,26.034-26.034
	C277.695,198.231,266.04,186.576,251.661,186.576z"/>
<g>
	<path style="fill:#FFDC13;" d="M277.695,39.051h-17.356c-23.96,0-43.39,19.43-43.39,43.39l0,0c0,23.96,19.43,43.39,43.39,43.39
		h17.356V39.051z"/>
	<path style="fill:#FFDC13;" d="M503.322,91.119h-17.356c-4.79,0-8.678-3.888-8.678-8.678s3.888-8.678,8.678-8.678h17.356
		c4.79,0,8.678,3.888,8.678,8.678S508.112,91.119,503.322,91.119z"/>
	<path style="fill:#FFDC13;" d="M465.634,42.027c-4.79,0-8.678-3.888-8.678-8.678c0-2.3,0.911-4.504,2.543-6.135l12.271-12.271
		c3.332-3.445,8.825-3.541,12.271-0.217c3.445,3.332,3.541,8.825,0.217,12.271c-0.069,0.069-0.139,0.139-0.217,0.217l-12.271,12.271
		C470.146,41.116,467.933,42.027,465.634,42.027z"/>
	<path style="fill:#FFDC13;" d="M477.904,152.481c-2.3,0-4.513-0.911-6.135-2.543l-12.271-12.271
		c-3.445-3.332-3.541-8.826-0.217-12.271c3.332-3.445,8.825-3.541,12.271-0.217c0.069,0.069,0.148,0.139,0.217,0.217l12.271,12.271
		c3.384,3.393,3.384,8.886,0,12.271C482.408,151.569,480.204,152.481,477.904,152.481z"/>
</g>
<path style="fill:#FFD4B0;" d="M242.983,151.864H138.848v52.068h104.136c14.379,0,26.034-11.655,26.034-26.034
	S257.362,151.864,242.983,151.864z"/>
<path style="fill:#B7E5FF;" d="M34.712,151.864C15.542,151.864,0,167.407,0,186.576v121.492h104.136V203.932h34.712v-52.068H34.712z
	"/>
<path style="fill:#B20D24;" d="M416.542,47.729v69.424c12.288-0.026,23.647-6.578,29.818-17.208
	C427.885,89.036,416.551,69.181,416.542,47.729z"/>
<polygon style="fill:#FFA511;" points="416.542,4.339 416.542,160.542 277.695,125.831 277.695,39.051 "/>
<path style="fill:#F08015;" d="M324.2,137.45l92.342,23.092V83.23C391.576,109.759,359.528,128.573,324.2,137.45z"/>
<g>
	<path style="fill:#163768;" d="M0,399.837v107.824h52.068V362.739C39.476,380.711,21.096,393.806,0,399.837z"/>
	<path style="fill:#163768;" d="M121.492,472.949h-9.364c-12.375,21.469-35.276,34.703-60.06,34.712h69.424
		c9.589,0,17.356-7.767,17.356-17.356C138.848,480.716,131.081,472.949,121.492,472.949z"/>
</g>
<path style="fill:#FFA511;" d="M2.725,82.823c0.443,1.432,0.868,2.855,1.441,4.244c0.321-0.321,0.686-0.59,1.015-0.868
	C4.339,85.096,3.532,83.951,2.725,82.823z"/>
<path style="fill:#F08015;" d="M112.814,4.339v35.137c2.89-0.148,5.771-0.425,8.678-0.425V4.339H112.814z"/>
<path style="fill:#EDC4A2;" d="M112.814,47.729c0.043,33.488-27.075,60.676-60.572,60.711c-18.232,0.026-35.502-8.157-47.035-22.276
	c-0.33,0.312-0.694,0.581-1.015,0.868c12.245,31.232,47.495,46.627,78.727,34.382c23.188-9.095,38.478-31.423,38.574-56.329V39.051
	c-2.907,0-5.788,0.278-8.678,0.425V47.729z"/>
<g>
</g>
<g>
</g>
<g>
</g>
<g>
</g>
<g>
</g>
<g>
</g>
<g>
</g>
<g>
</g>
<g>
</g>
<g>
</g>
<g>
</g>
<g>
</g>
<g>
</g>
<g>
</g>
<g>
</g>
</svg>
